<mxfile host="app.diagrams.net" modified="2024-04-19T07:24:38.394Z" agent="Mozilla/5.0 (Windows NT 10.0; Win64; x64) AppleWebKit/537.36 (KHTML, like Gecko) Chrome/123.0.0.0 Safari/537.36" etag="folBuTEWoDkQv60auUGn" version="24.2.5" type="github">
  <diagram name="demo aop" id="aEV8IAMTmNRONRAw4vbe">
    <mxGraphModel dx="2261" dy="772" grid="1" gridSize="10" guides="1" tooltips="1" connect="1" arrows="1" fold="1" page="1" pageScale="1" pageWidth="827" pageHeight="1169" math="0" shadow="0">
      <root>
        <mxCell id="0" />
        <mxCell id="1" parent="0" />
        <mxCell id="6mTHN336h9XDNNZTGpFV-14" value="demo app" style="rounded=0;whiteSpace=wrap;html=1;verticalAlign=top;fillColor=#d5e8d4;strokeColor=#82b366;" vertex="1" parent="1">
          <mxGeometry x="10" y="60" width="750" height="440" as="geometry" />
        </mxCell>
        <mxCell id="6mTHN336h9XDNNZTGpFV-1" value="frontened&amp;nbsp;" style="rounded=0;whiteSpace=wrap;html=1;verticalAlign=top;" vertex="1" parent="1">
          <mxGeometry x="60" y="130" width="190" height="310" as="geometry" />
        </mxCell>
        <mxCell id="6mTHN336h9XDNNZTGpFV-2" value="map services&lt;span style=&quot;color: rgba(0, 0, 0, 0); font-family: monospace; font-size: 0px; text-align: start; text-wrap: nowrap;&quot;&gt;%3CmxGraphModel%3E%3Croot%3E%3CmxCell%20id%3D%220%22%2F%3E%3CmxCell%20id%3D%221%22%20parent%3D%220%22%2F%3E%3CmxCell%20id%3D%222%22%20value%3D%22frontened%26amp%3Bnbsp%3B%22%20style%3D%22rounded%3D0%3BwhiteSpace%3Dwrap%3Bhtml%3D1%3B%22%20vertex%3D%221%22%20parent%3D%221%22%3E%3CmxGeometry%20x%3D%22310%22%20y%3D%22140%22%20width%3D%22190%22%20height%3D%22310%22%20as%3D%22geometry%22%2F%3E%3C%2FmxCell%3E%3C%2Froot%3E%3C%2FmxGraphModel%3E&lt;/span&gt;" style="rounded=0;whiteSpace=wrap;html=1;verticalAlign=top;" vertex="1" parent="1">
          <mxGeometry x="280" y="130" width="190" height="310" as="geometry" />
        </mxCell>
        <mxCell id="6mTHN336h9XDNNZTGpFV-3" value="data sources" style="rounded=0;whiteSpace=wrap;html=1;verticalAlign=top;" vertex="1" parent="1">
          <mxGeometry x="500" y="130" width="190" height="310" as="geometry" />
        </mxCell>
        <mxCell id="6mTHN336h9XDNNZTGpFV-15" style="edgeStyle=orthogonalEdgeStyle;rounded=0;orthogonalLoop=1;jettySize=auto;html=1;entryX=0;entryY=0.75;entryDx=0;entryDy=0;" edge="1" parent="1" source="6mTHN336h9XDNNZTGpFV-5" target="6mTHN336h9XDNNZTGpFV-9">
          <mxGeometry relative="1" as="geometry" />
        </mxCell>
        <mxCell id="6mTHN336h9XDNNZTGpFV-27" value="9090" style="edgeLabel;html=1;align=center;verticalAlign=middle;resizable=0;points=[];" vertex="1" connectable="0" parent="6mTHN336h9XDNNZTGpFV-15">
          <mxGeometry x="-0.02" relative="1" as="geometry">
            <mxPoint as="offset" />
          </mxGeometry>
        </mxCell>
        <mxCell id="6mTHN336h9XDNNZTGpFV-5" value="react app" style="rounded=0;whiteSpace=wrap;html=1;fillColor=#e1d5e7;strokeColor=#9673a6;" vertex="1" parent="1">
          <mxGeometry x="95" y="170" width="120" height="60" as="geometry" />
        </mxCell>
        <mxCell id="6mTHN336h9XDNNZTGpFV-7" value="mpn server" style="rounded=0;whiteSpace=wrap;html=1;" vertex="1" parent="1">
          <mxGeometry x="95" y="250" width="120" height="60" as="geometry" />
        </mxCell>
        <mxCell id="6mTHN336h9XDNNZTGpFV-8" value="leaflet js" style="rounded=0;whiteSpace=wrap;html=1;fillColor=#60a917;fontColor=#ffffff;strokeColor=#2D7600;" vertex="1" parent="1">
          <mxGeometry x="95" y="330" width="120" height="60" as="geometry" />
        </mxCell>
        <mxCell id="6mTHN336h9XDNNZTGpFV-16" style="edgeStyle=orthogonalEdgeStyle;rounded=0;orthogonalLoop=1;jettySize=auto;html=1;" edge="1" parent="1" source="6mTHN336h9XDNNZTGpFV-9" target="6mTHN336h9XDNNZTGpFV-12">
          <mxGeometry relative="1" as="geometry" />
        </mxCell>
        <mxCell id="6mTHN336h9XDNNZTGpFV-25" value="5432" style="edgeLabel;html=1;align=center;verticalAlign=middle;resizable=0;points=[];" vertex="1" connectable="0" parent="6mTHN336h9XDNNZTGpFV-16">
          <mxGeometry x="0.0621" relative="1" as="geometry">
            <mxPoint as="offset" />
          </mxGeometry>
        </mxCell>
        <mxCell id="6mTHN336h9XDNNZTGpFV-17" style="edgeStyle=orthogonalEdgeStyle;rounded=0;orthogonalLoop=1;jettySize=auto;html=1;" edge="1" parent="1" source="6mTHN336h9XDNNZTGpFV-9" target="6mTHN336h9XDNNZTGpFV-13">
          <mxGeometry relative="1" as="geometry" />
        </mxCell>
        <mxCell id="6mTHN336h9XDNNZTGpFV-26" value="storage" style="edgeLabel;html=1;align=center;verticalAlign=middle;resizable=0;points=[];" vertex="1" connectable="0" parent="6mTHN336h9XDNNZTGpFV-17">
          <mxGeometry x="0.037" y="-1" relative="1" as="geometry">
            <mxPoint as="offset" />
          </mxGeometry>
        </mxCell>
        <mxCell id="6mTHN336h9XDNNZTGpFV-9" value="geoserwer" style="rounded=0;whiteSpace=wrap;html=1;fillColor=#dae8fc;strokeColor=#6c8ebf;" vertex="1" parent="1">
          <mxGeometry x="315" y="255" width="120" height="60" as="geometry" />
        </mxCell>
        <mxCell id="6mTHN336h9XDNNZTGpFV-12" value="postgis" style="rounded=0;whiteSpace=wrap;html=1;fillColor=#fa6800;fontColor=#000000;strokeColor=#C73500;" vertex="1" parent="1">
          <mxGeometry x="535" y="210" width="120" height="60" as="geometry" />
        </mxCell>
        <mxCell id="6mTHN336h9XDNNZTGpFV-13" value="gpkg, fgb files" style="rounded=0;whiteSpace=wrap;html=1;" vertex="1" parent="1">
          <mxGeometry x="535" y="290" width="120" height="60" as="geometry" />
        </mxCell>
        <mxCell id="6mTHN336h9XDNNZTGpFV-21" style="edgeStyle=orthogonalEdgeStyle;rounded=0;orthogonalLoop=1;jettySize=auto;html=1;" edge="1" parent="1" source="6mTHN336h9XDNNZTGpFV-18" target="6mTHN336h9XDNNZTGpFV-9">
          <mxGeometry relative="1" as="geometry">
            <Array as="points">
              <mxPoint x="375" y="160" />
            </Array>
          </mxGeometry>
        </mxCell>
        <mxCell id="6mTHN336h9XDNNZTGpFV-23" value="ows" style="edgeLabel;html=1;align=center;verticalAlign=middle;resizable=0;points=[];" vertex="1" connectable="0" parent="6mTHN336h9XDNNZTGpFV-21">
          <mxGeometry x="-0.7404" relative="1" as="geometry">
            <mxPoint as="offset" />
          </mxGeometry>
        </mxCell>
        <mxCell id="6mTHN336h9XDNNZTGpFV-18" value="GIS SYSTEM CLIENT&amp;nbsp;" style="shape=umlActor;verticalLabelPosition=bottom;verticalAlign=top;html=1;outlineConnect=0;" vertex="1" parent="1">
          <mxGeometry x="-130" y="150" width="30" height="70" as="geometry" />
        </mxCell>
        <mxCell id="6mTHN336h9XDNNZTGpFV-22" style="edgeStyle=orthogonalEdgeStyle;rounded=0;orthogonalLoop=1;jettySize=auto;html=1;entryX=0;entryY=0.5;entryDx=0;entryDy=0;" edge="1" parent="1" source="6mTHN336h9XDNNZTGpFV-19" target="6mTHN336h9XDNNZTGpFV-5">
          <mxGeometry relative="1" as="geometry">
            <Array as="points">
              <mxPoint x="-50" y="345" />
              <mxPoint x="-50" y="200" />
            </Array>
          </mxGeometry>
        </mxCell>
        <mxCell id="6mTHN336h9XDNNZTGpFV-24" value="web broser" style="edgeLabel;html=1;align=center;verticalAlign=middle;resizable=0;points=[];" vertex="1" connectable="0" parent="6mTHN336h9XDNNZTGpFV-22">
          <mxGeometry x="0.6647" relative="1" as="geometry">
            <mxPoint as="offset" />
          </mxGeometry>
        </mxCell>
        <mxCell id="6mTHN336h9XDNNZTGpFV-19" value="WEB APP CLIENT" style="shape=umlActor;verticalLabelPosition=bottom;verticalAlign=top;html=1;outlineConnect=0;" vertex="1" parent="1">
          <mxGeometry x="-130" y="310" width="30" height="70" as="geometry" />
        </mxCell>
      </root>
    </mxGraphModel>
  </diagram>
</mxfile>
